<mxfile modified="2020-12-08T05:00:42.520Z" host="app.diagrams.net" agent="5.0 (Windows)" etag="sgqIWjP_CICql7gM3rdr" version="13.10.6" type="github">
  <diagram id="L7xhaTyGDJctH5aDYvOu" name="Page-2">
    <mxGraphModel dx="975" dy="587" grid="1" gridSize="10" guides="1" tooltips="1" connect="1" arrows="1" fold="1" page="1" pageScale="1" pageWidth="827" pageHeight="1169" math="0" shadow="0">
      <root>
        <mxCell id="nNvE3wCDXe1zB-vRH93K-0" />
        <mxCell id="nNvE3wCDXe1zB-vRH93K-1" parent="nNvE3wCDXe1zB-vRH93K-0" />
        <mxCell id="tds_qtYH7TQnGZW7USgK-12" style="edgeStyle=orthogonalEdgeStyle;rounded=0;orthogonalLoop=1;jettySize=auto;html=1;exitX=0.5;exitY=1;exitDx=0;exitDy=0;entryX=0;entryY=0.25;entryDx=0;entryDy=0;startArrow=none;startFill=0;endArrow=open;endFill=0;strokeColor=#808080;strokeWidth=2;" edge="1" parent="nNvE3wCDXe1zB-vRH93K-1" source="nNvE3wCDXe1zB-vRH93K-36" target="nNvE3wCDXe1zB-vRH93K-39">
          <mxGeometry relative="1" as="geometry" />
        </mxCell>
        <mxCell id="tds_qtYH7TQnGZW7USgK-13" style="edgeStyle=orthogonalEdgeStyle;rounded=0;orthogonalLoop=1;jettySize=auto;html=1;exitX=0.5;exitY=1;exitDx=0;exitDy=0;entryX=0;entryY=0.5;entryDx=0;entryDy=0;startArrow=none;startFill=0;endArrow=open;endFill=0;strokeColor=#808080;strokeWidth=2;" edge="1" parent="nNvE3wCDXe1zB-vRH93K-1" source="nNvE3wCDXe1zB-vRH93K-36" target="nNvE3wCDXe1zB-vRH93K-38">
          <mxGeometry relative="1" as="geometry" />
        </mxCell>
        <mxCell id="nNvE3wCDXe1zB-vRH93K-36" value="&lt;div&gt;定期実行&lt;/div&gt;&lt;div&gt;cron&lt;br&gt;&lt;/div&gt;" style="whiteSpace=wrap;html=1;aspect=fixed;" vertex="1" parent="nNvE3wCDXe1zB-vRH93K-1">
          <mxGeometry x="240" y="40" width="80" height="80" as="geometry" />
        </mxCell>
        <mxCell id="tds_qtYH7TQnGZW7USgK-15" style="edgeStyle=orthogonalEdgeStyle;rounded=0;orthogonalLoop=1;jettySize=auto;html=1;exitX=1;exitY=0.5;exitDx=0;exitDy=0;entryX=0;entryY=0.5;entryDx=0;entryDy=0;startArrow=open;startFill=0;endArrow=open;endFill=0;strokeColor=#808080;strokeWidth=2;" edge="1" parent="nNvE3wCDXe1zB-vRH93K-1" source="nNvE3wCDXe1zB-vRH93K-38" target="nNvE3wCDXe1zB-vRH93K-35">
          <mxGeometry relative="1" as="geometry" />
        </mxCell>
        <mxCell id="tds_qtYH7TQnGZW7USgK-17" style="edgeStyle=orthogonalEdgeStyle;rounded=0;orthogonalLoop=1;jettySize=auto;html=1;exitX=0.5;exitY=1;exitDx=0;exitDy=0;entryX=0;entryY=0.5;entryDx=0;entryDy=0;startArrow=none;startFill=0;endArrow=open;endFill=0;strokeColor=#808080;strokeWidth=2;" edge="1" parent="nNvE3wCDXe1zB-vRH93K-1" source="nNvE3wCDXe1zB-vRH93K-38" target="nNvE3wCDXe1zB-vRH93K-40">
          <mxGeometry relative="1" as="geometry" />
        </mxCell>
        <mxCell id="nNvE3wCDXe1zB-vRH93K-38" value="&lt;div&gt;G3証明書&lt;/div&gt;&lt;div&gt;検索システム&lt;br&gt;&lt;/div&gt;" style="whiteSpace=wrap;html=1;aspect=fixed;" vertex="1" parent="nNvE3wCDXe1zB-vRH93K-1">
          <mxGeometry x="360" y="160" width="80" height="80" as="geometry" />
        </mxCell>
        <mxCell id="tds_qtYH7TQnGZW7USgK-14" style="edgeStyle=orthogonalEdgeStyle;rounded=0;orthogonalLoop=1;jettySize=auto;html=1;exitX=0;exitY=0.75;exitDx=0;exitDy=0;startArrow=none;startFill=0;endArrow=open;endFill=0;strokeColor=#808080;strokeWidth=2;" edge="1" parent="nNvE3wCDXe1zB-vRH93K-1" source="nNvE3wCDXe1zB-vRH93K-39" target="tds_qtYH7TQnGZW7USgK-0">
          <mxGeometry relative="1" as="geometry" />
        </mxCell>
        <mxCell id="nNvE3wCDXe1zB-vRH93K-39" value="&lt;div&gt;メール送信&lt;/div&gt;&lt;div&gt;システム&lt;/div&gt;" style="whiteSpace=wrap;html=1;aspect=fixed;" vertex="1" parent="nNvE3wCDXe1zB-vRH93K-1">
          <mxGeometry x="360" y="400" width="80" height="80" as="geometry" />
        </mxCell>
        <mxCell id="tds_qtYH7TQnGZW7USgK-18" style="edgeStyle=orthogonalEdgeStyle;rounded=0;orthogonalLoop=1;jettySize=auto;html=1;exitX=0.5;exitY=1;exitDx=0;exitDy=0;entryX=1;entryY=0.5;entryDx=0;entryDy=0;startArrow=none;startFill=0;endArrow=open;endFill=0;strokeColor=#808080;strokeWidth=2;" edge="1" parent="nNvE3wCDXe1zB-vRH93K-1" source="nNvE3wCDXe1zB-vRH93K-40" target="nNvE3wCDXe1zB-vRH93K-39">
          <mxGeometry relative="1" as="geometry" />
        </mxCell>
        <mxCell id="9xR5e9x84lklHXayTx98-0" value="&lt;div&gt;証明書状態&lt;/div&gt;&lt;div&gt;検索&lt;/div&gt;&lt;div&gt;Webアプリ&lt;br&gt;&lt;/div&gt;" style="whiteSpace=wrap;html=1;aspect=fixed;" vertex="1" parent="nNvE3wCDXe1zB-vRH93K-1">
          <mxGeometry x="239" y="700" width="80" height="80" as="geometry" />
        </mxCell>
        <mxCell id="tds_qtYH7TQnGZW7USgK-3" value="" style="group" vertex="1" connectable="0" parent="nNvE3wCDXe1zB-vRH93K-1">
          <mxGeometry x="79" y="414" width="82.98000000000002" height="114" as="geometry" />
        </mxCell>
        <mxCell id="tds_qtYH7TQnGZW7USgK-0" value="" style="aspect=fixed;perimeter=ellipsePerimeter;html=1;align=center;shadow=0;dashed=0;spacingTop=3;image;image=img/lib/active_directory/user.svg;" vertex="1" parent="tds_qtYH7TQnGZW7USgK-3">
          <mxGeometry x="24.470000000000027" width="34.04" height="92" as="geometry" />
        </mxCell>
        <mxCell id="tds_qtYH7TQnGZW7USgK-2" value="ca-admin" style="text;html=1;strokeColor=none;fillColor=none;align=center;verticalAlign=middle;whiteSpace=wrap;rounded=0;" vertex="1" parent="tds_qtYH7TQnGZW7USgK-3">
          <mxGeometry y="94" width="82.98" height="20" as="geometry" />
        </mxCell>
        <mxCell id="tds_qtYH7TQnGZW7USgK-19" value="&lt;div&gt;ipアドレスやパスなど&lt;/div&gt;&lt;div&gt;環境の表記が必要&lt;br&gt;&lt;/div&gt;" style="rounded=0;whiteSpace=wrap;html=1;" vertex="1" parent="nNvE3wCDXe1zB-vRH93K-1">
          <mxGeometry x="40.49000000000001" y="240" width="160" height="80" as="geometry" />
        </mxCell>
        <mxCell id="tds_qtYH7TQnGZW7USgK-21" value="" style="group" vertex="1" connectable="0" parent="nNvE3wCDXe1zB-vRH93K-1">
          <mxGeometry x="520" y="130" width="120" height="110" as="geometry" />
        </mxCell>
        <mxCell id="nNvE3wCDXe1zB-vRH93K-35" value="&lt;div&gt;証明書&lt;/div&gt;&lt;div&gt;DB&lt;br&gt;&lt;/div&gt;" style="whiteSpace=wrap;html=1;aspect=fixed;" vertex="1" parent="tds_qtYH7TQnGZW7USgK-21">
          <mxGeometry y="30" width="80" height="80" as="geometry" />
        </mxCell>
        <mxCell id="tds_qtYH7TQnGZW7USgK-20" value="PostgreSQL" style="text;html=1;strokeColor=none;fillColor=none;align=center;verticalAlign=middle;whiteSpace=wrap;rounded=0;" vertex="1" parent="tds_qtYH7TQnGZW7USgK-21">
          <mxGeometry x="40" y="10" width="80" height="20" as="geometry" />
        </mxCell>
        <mxCell id="tds_qtYH7TQnGZW7USgK-24" value="" style="group" vertex="1" connectable="0" parent="nNvE3wCDXe1zB-vRH93K-1">
          <mxGeometry x="79" y="694" width="82.98000000000002" height="114" as="geometry" />
        </mxCell>
        <mxCell id="tds_qtYH7TQnGZW7USgK-25" value="" style="aspect=fixed;perimeter=ellipsePerimeter;html=1;align=center;shadow=0;dashed=0;spacingTop=3;image;image=img/lib/active_directory/user.svg;" vertex="1" parent="tds_qtYH7TQnGZW7USgK-24">
          <mxGeometry x="24.470000000000027" width="34.04" height="92" as="geometry" />
        </mxCell>
        <mxCell id="tds_qtYH7TQnGZW7USgK-26" value="ユーザ" style="text;html=1;strokeColor=none;fillColor=none;align=center;verticalAlign=middle;whiteSpace=wrap;rounded=0;" vertex="1" parent="tds_qtYH7TQnGZW7USgK-24">
          <mxGeometry y="94" width="82.98" height="20" as="geometry" />
        </mxCell>
        <mxCell id="tds_qtYH7TQnGZW7USgK-27" style="edgeStyle=orthogonalEdgeStyle;rounded=0;orthogonalLoop=1;jettySize=auto;html=1;exitX=1;exitY=0.5;exitDx=0;exitDy=0;startArrow=open;startFill=0;endArrow=open;endFill=0;strokeColor=#808080;strokeWidth=2;" edge="1" parent="nNvE3wCDXe1zB-vRH93K-1" source="tds_qtYH7TQnGZW7USgK-25" target="9xR5e9x84lklHXayTx98-0">
          <mxGeometry relative="1" as="geometry" />
        </mxCell>
        <mxCell id="tds_qtYH7TQnGZW7USgK-42" style="edgeStyle=orthogonalEdgeStyle;rounded=0;orthogonalLoop=1;jettySize=auto;html=1;exitX=1;exitY=0.5;exitDx=0;exitDy=0;entryX=0;entryY=0.5;entryDx=0;entryDy=0;startArrow=open;startFill=0;endArrow=open;endFill=0;strokeColor=#808080;strokeWidth=2;" edge="1" parent="nNvE3wCDXe1zB-vRH93K-1" source="tds_qtYH7TQnGZW7USgK-28" target="tds_qtYH7TQnGZW7USgK-53">
          <mxGeometry relative="1" as="geometry">
            <mxPoint x="579" y="640" as="targetPoint" />
          </mxGeometry>
        </mxCell>
        <mxCell id="tds_qtYH7TQnGZW7USgK-43" style="edgeStyle=orthogonalEdgeStyle;rounded=0;orthogonalLoop=1;jettySize=auto;html=1;exitX=0.5;exitY=1;exitDx=0;exitDy=0;entryX=0.5;entryY=0;entryDx=0;entryDy=0;startArrow=none;startFill=0;endArrow=open;endFill=0;strokeColor=#808080;strokeWidth=2;" edge="1" parent="nNvE3wCDXe1zB-vRH93K-1" source="tds_qtYH7TQnGZW7USgK-28" target="tds_qtYH7TQnGZW7USgK-39">
          <mxGeometry relative="1" as="geometry" />
        </mxCell>
        <mxCell id="tds_qtYH7TQnGZW7USgK-28" value="&lt;div&gt;G3証明書&lt;/div&gt;&lt;div&gt;検索システム&lt;br&gt;&lt;/div&gt;" style="whiteSpace=wrap;html=1;aspect=fixed;" vertex="1" parent="nNvE3wCDXe1zB-vRH93K-1">
          <mxGeometry x="399" y="600" width="80" height="80" as="geometry" />
        </mxCell>
        <mxCell id="tds_qtYH7TQnGZW7USgK-36" value="" style="group" vertex="1" connectable="0" parent="nNvE3wCDXe1zB-vRH93K-1">
          <mxGeometry x="520" y="285" width="270" height="100" as="geometry" />
        </mxCell>
        <mxCell id="tds_qtYH7TQnGZW7USgK-23" value="" style="group" vertex="1" connectable="0" parent="tds_qtYH7TQnGZW7USgK-36">
          <mxGeometry width="260" height="100" as="geometry" />
        </mxCell>
        <mxCell id="nNvE3wCDXe1zB-vRH93K-40" value="&lt;div&gt;ログファイル&lt;/div&gt;&lt;div&gt;保管フォルダ&lt;br&gt;&lt;/div&gt;" style="whiteSpace=wrap;html=1;aspect=fixed;" vertex="1" parent="tds_qtYH7TQnGZW7USgK-23">
          <mxGeometry y="20" width="80" height="80" as="geometry" />
        </mxCell>
        <mxCell id="tds_qtYH7TQnGZW7USgK-22" value="/logs/sslcert-G3/sslcert-G3.log.2020-**-**" style="text;html=1;strokeColor=none;fillColor=none;align=center;verticalAlign=middle;whiteSpace=wrap;rounded=0;" vertex="1" parent="tds_qtYH7TQnGZW7USgK-36">
          <mxGeometry x="40" width="230" height="20" as="geometry" />
        </mxCell>
        <mxCell id="tds_qtYH7TQnGZW7USgK-44" value="" style="group" vertex="1" connectable="0" parent="nNvE3wCDXe1zB-vRH93K-1">
          <mxGeometry x="399" y="780" width="270" height="120" as="geometry" />
        </mxCell>
        <mxCell id="tds_qtYH7TQnGZW7USgK-37" value="" style="group" vertex="1" connectable="0" parent="tds_qtYH7TQnGZW7USgK-44">
          <mxGeometry width="270" height="100" as="geometry" />
        </mxCell>
        <mxCell id="tds_qtYH7TQnGZW7USgK-38" value="" style="group" vertex="1" connectable="0" parent="tds_qtYH7TQnGZW7USgK-37">
          <mxGeometry width="260" height="100" as="geometry" />
        </mxCell>
        <mxCell id="tds_qtYH7TQnGZW7USgK-39" value="&lt;div&gt;ログファイル&lt;/div&gt;&lt;div&gt;保管フォルダ&lt;br&gt;&lt;/div&gt;" style="whiteSpace=wrap;html=1;aspect=fixed;" vertex="1" parent="tds_qtYH7TQnGZW7USgK-38">
          <mxGeometry y="20" width="80" height="80" as="geometry" />
        </mxCell>
        <mxCell id="tds_qtYH7TQnGZW7USgK-40" value="/logs/sslcert-G3/sslcert-G3.log.2020-**-**" style="text;html=1;strokeColor=none;fillColor=none;align=center;verticalAlign=middle;whiteSpace=wrap;rounded=0;" vertex="1" parent="tds_qtYH7TQnGZW7USgK-44">
          <mxGeometry x="40" y="100" width="230" height="20" as="geometry" />
        </mxCell>
        <mxCell id="tds_qtYH7TQnGZW7USgK-47" value="" style="group" vertex="1" connectable="0" parent="nNvE3wCDXe1zB-vRH93K-1">
          <mxGeometry x="299" y="640" width="50" height="20" as="geometry" />
        </mxCell>
        <mxCell id="tds_qtYH7TQnGZW7USgK-41" style="edgeStyle=orthogonalEdgeStyle;rounded=0;orthogonalLoop=1;jettySize=auto;html=1;exitX=1;exitY=0.25;exitDx=0;exitDy=0;entryX=0;entryY=0.5;entryDx=0;entryDy=0;startArrow=open;startFill=0;endArrow=open;endFill=0;strokeColor=#808080;strokeWidth=2;" edge="1" parent="tds_qtYH7TQnGZW7USgK-47" source="9xR5e9x84lklHXayTx98-0" target="tds_qtYH7TQnGZW7USgK-28">
          <mxGeometry relative="1" as="geometry" />
        </mxCell>
        <mxCell id="tds_qtYH7TQnGZW7USgK-46" value="全数検索" style="text;html=1;strokeColor=none;fillColor=none;align=center;verticalAlign=middle;whiteSpace=wrap;rounded=0;" vertex="1" parent="tds_qtYH7TQnGZW7USgK-47">
          <mxGeometry width="50" height="20" as="geometry" />
        </mxCell>
        <mxCell id="tds_qtYH7TQnGZW7USgK-50" value="" style="group" vertex="1" connectable="0" parent="nNvE3wCDXe1zB-vRH93K-1">
          <mxGeometry x="279" y="808" width="90" height="20" as="geometry" />
        </mxCell>
        <mxCell id="tds_qtYH7TQnGZW7USgK-45" style="edgeStyle=orthogonalEdgeStyle;rounded=0;orthogonalLoop=1;jettySize=auto;html=1;exitX=1;exitY=0.75;exitDx=0;exitDy=0;entryX=0;entryY=0.5;entryDx=0;entryDy=0;startArrow=classic;startFill=1;endArrow=open;endFill=0;strokeColor=#808080;strokeWidth=2;" edge="1" parent="tds_qtYH7TQnGZW7USgK-50" source="9xR5e9x84lklHXayTx98-0" target="tds_qtYH7TQnGZW7USgK-39">
          <mxGeometry relative="1" as="geometry" />
        </mxCell>
        <mxCell id="tds_qtYH7TQnGZW7USgK-48" value="&lt;div&gt;特定日検索&lt;br&gt;&lt;/div&gt;" style="text;html=1;strokeColor=none;fillColor=none;align=center;verticalAlign=middle;whiteSpace=wrap;rounded=0;" vertex="1" parent="tds_qtYH7TQnGZW7USgK-50">
          <mxGeometry width="90" height="20" as="geometry" />
        </mxCell>
        <mxCell id="tds_qtYH7TQnGZW7USgK-51" value="&amp;nbsp;毎日０:00実行" style="text;html=1;strokeColor=none;fillColor=none;align=center;verticalAlign=middle;whiteSpace=wrap;rounded=0;" vertex="1" parent="nNvE3wCDXe1zB-vRH93K-1">
          <mxGeometry x="180" y="140" width="99" height="20" as="geometry" />
        </mxCell>
        <mxCell id="tds_qtYH7TQnGZW7USgK-52" value="" style="group" vertex="1" connectable="0" parent="nNvE3wCDXe1zB-vRH93K-1">
          <mxGeometry x="560" y="570" width="120" height="110" as="geometry" />
        </mxCell>
        <mxCell id="tds_qtYH7TQnGZW7USgK-53" value="&lt;div&gt;証明書&lt;/div&gt;&lt;div&gt;DB&lt;br&gt;&lt;/div&gt;" style="whiteSpace=wrap;html=1;aspect=fixed;" vertex="1" parent="tds_qtYH7TQnGZW7USgK-52">
          <mxGeometry y="30" width="80" height="80" as="geometry" />
        </mxCell>
        <mxCell id="tds_qtYH7TQnGZW7USgK-54" value="PostgreSQL" style="text;html=1;strokeColor=none;fillColor=none;align=center;verticalAlign=middle;whiteSpace=wrap;rounded=0;" vertex="1" parent="tds_qtYH7TQnGZW7USgK-52">
          <mxGeometry x="40" y="10" width="80" height="20" as="geometry" />
        </mxCell>
      </root>
    </mxGraphModel>
  </diagram>
</mxfile>
